<svg width="96" height="96" version="1.1" viewBox="0 0 96 96" xmlns="http://www.w3.org/2000/svg"><g transform="translate(-96)"><rect x="96" width="96" height="96" fill="#264042" stroke-linecap="round" stroke-linejoin="round" stroke-width="2" style="paint-order:stroke fill markers"/><g transform="translate(132,36)"><g fill="none"><path d="m0 0h24v24h-24z"/><path d="m0 0h24v24h-24z"/></g><g fill="#c4ce5b"><path d="m12 17.27 4.15 2.51c0.76 0.46 1.69-0.22 1.49-1.08l-1.1-4.72 3.67-3.18c0.67-0.58 0.31-1.68-0.57-1.75l-4.83-0.41-1.89-4.46c-0.34-0.81-1.5-0.81-1.84 0l-1.89 4.45-4.83 0.41c-0.88 0.07-1.24 1.17-0.57 1.75l3.67 3.18-1.1 4.72c-0.2 0.86 0.73 1.54 1.49 1.08z" fill="#c4ce5b"/></g></g><path d="m192 48a48 48 0 0 1-33.941-14.059 48 48 0 0 1-14.059-33.941h48z" fill="#325c4f" stroke-linecap="round" stroke-linejoin="round" stroke-width="2" style="paint-order:stroke fill markers"/><path d="m96 48a48 48 0 0 1 48 48h-48z" fill="#325c4f" stroke-linecap="round" stroke-linejoin="round" stroke-width="2" style="paint-order:stroke fill markers"/></g></svg>
