<svg width="96" height="96" version="1.1" viewBox="0 0 96 96" xmlns="http://www.w3.org/2000/svg"><g stroke-linejoin="round"><rect width="96" height="96" fill="#313152" stroke-linecap="round" stroke-width="2" style="paint-order:stroke fill markers"/><g transform="translate(35.998 36)" fill="#77d1ff"><path d="m12 2a1.0001 1.0001 0 0 0-0.83203 0.44531l-1.7539 2.6289 0.37891 1.1348 1.0391 0.3457 1.168-1.752 4.7988 7.1973-1.8906 2.8359 0.0918 0.04687 1.5527-0.77734a1.0001 1.0001 0 0 1 0.80859-0.03711 1.0001 1.0001 0 0 1 0.32422 0.20703l1.1465-1.7207a1.0001 1.0001 0 0 0 0-1.1094l-6-9a1.0001 1.0001 0 0 0-0.83203-0.44531zm-3.9922 5.1836-0.025391 0.041016-0.03125 0.091797a1.0001 1.0001 0 0 1-0.35742 0.49023 1.0001 1.0001 0 0 1-0.00195 0.00195l-0.18945 0.28516a1.0001 1.0001 0 0 1 0.54883 0.58984l0.050781 0.15234 0.050781-0.15234a1.0001 1.0001 0 0 1 0.63281-0.63281l0.15234-0.050781-0.15234-0.050781a1.0001 1.0001 0 0 1-0.63281-0.63281l-0.044922-0.13281zm-1.7773 2.668-1.0625 1.5937a1.0001 1.0001 0 0 0 0 1.1094l6 9a1.0001 1.0001 0 0 0 1.6641 0l1.3535-2.0293-0.73828 0.36914a1.0001 1.0001 0 0 1-1.4141-0.74609l-0.0332 0.04883-4.1523-6.2285a1.0001 1.0001 0 0 1-0.79492-0.65234l-0.82227-2.4648zm8.7578 7.043a1.0001 1.0001 0 0 1 0 0.21094 1.0001 1.0001 0 0 1 0.11719 0 1.0001 1.0001 0 0 1 0-0.21094 1.0001 1.0001 0 0 1-0.11719 0z" color="#000000" stroke-linecap="round" style="-inkscape-stroke:none"/><path d="m8.0016 4 1 3 3 1-3 1-1 3-1-3-3-1 3-1z" color="#000000" stroke-width="2" style="-inkscape-stroke:none;paint-order:stroke fill markers"/><path d="m15 16 2-1-1 2 1 2-2-1-2 1 1-2-1-2z" color="#000000" stroke-linecap="round" stroke-width="2" style="-inkscape-stroke:none;paint-order:stroke fill markers"/></g><path d="m96 48a48 48 0 0 1-33.941-14.059 48 48 0 0 1-14.059-33.941h48z" fill="#414773" stroke-linecap="round" stroke-width="2" style="paint-order:stroke fill markers"/><path d="m0 48a48 48 0 0 1 48 48h-48z" fill="#414773" stroke-linecap="round" stroke-width="2" style="paint-order:stroke fill markers"/></g></svg>
