<svg width="96" height="96" version="1.1" viewBox="0 0 96 96" xmlns="http://www.w3.org/2000/svg"><g transform="translate(-192)"><rect x="192" width="96" height="96" fill="#533938" stroke-linecap="round" stroke-linejoin="round" stroke-width="2" style="paint-order:stroke fill markers"/><g transform="translate(228,36)"><g fill="none"><path d="m0 0h24v24h-24z"/><path d="m0 0h24v24h-24z"/></g><g fill="#c4ce5b"><path d="m11 9h2v-2h-2m1 13c-4.41 0-8-3.59-8-8s3.59-8 8-8 8 3.59 8 8-3.59 8-8 8m0-18a10 10 0 0 0-10 10 10 10 0 0 0 10 10 10 10 0 0 0 10-10 10 10 0 0 0-10-10m-1 15h2v-6h-2v6z" fill="#ffcc8f"/></g></g><path d="M 288,48 A 48,48 0 0 1 254.059,33.941 48,48 0 0 1 240,0 h 48 z" fill="#74514b" stroke-linecap="round" stroke-linejoin="round" stroke-width="2" style="paint-order:stroke fill markers"/><path d="m192 48a48 48 0 0 1 48 48h-48z" fill="#74514b" stroke-linecap="round" stroke-linejoin="round" stroke-width="2" style="paint-order:stroke fill markers"/></g></svg>
