<svg width="96" height="96" version="1.1" viewBox="0 0 96 96" xmlns="http://www.w3.org/2000/svg"><g transform="translate(-192)"><rect x="192" width="96" height="96" fill="#4a3853" stroke-linecap="round" stroke-linejoin="round" stroke-width="2" style="paint-order:stroke fill markers"/><g transform="translate(228,36)"><g fill="none"><path d="m0 0h24v24h-24z"/><path d="m0 0h24v24h-24z"/></g><g fill="#c4ce5b"><path d="m6.92 5h-1.92l9 9 1-0.94m4.96 6.06-0.84 0.84c-0.39 0.39-1.02 0.39-1.41 0l-3.12-3.12-2.68 2.66-1.41-1.41 1.42-1.42-8.92-8.92v-4.75h4.75l8.92 8.92 1.42-1.42 1.41 1.41-2.67 2.67 3.12 3.12c0.4 0.4 0.4 1.03 0.01 1.42z" fill="#ff8f91"/></g></g><path d="M 288,48 A 48,48 0 0 1 254.059,33.941 48,48 0 0 1 240,0 h 48 z" fill="#714b74" stroke-linecap="round" stroke-linejoin="round" stroke-width="2" style="paint-order:stroke fill markers"/><path d="m192 48a48 48 0 0 1 48 48h-48z" fill="#714b74" stroke-linecap="round" stroke-linejoin="round" stroke-width="2" style="paint-order:stroke fill markers"/></g></svg>
